<mxfile host="65bd71144e">
    <diagram id="q6zxBaOeTUKC7dJBFYkr" name="Page-1">
        <mxGraphModel dx="1940" dy="1150" grid="0" gridSize="10" guides="1" tooltips="1" connect="1" arrows="1" fold="1" page="1" pageScale="1" pageWidth="1654" pageHeight="1169" background="#ffffff" math="0" shadow="0">
            <root>
                <mxCell id="0"/>
                <mxCell id="1" parent="0"/>
                <mxCell id="2" value="&lt;font color=&quot;#000000&quot; style=&quot;font-size: 39px;&quot;&gt;PESERTA&lt;/font&gt;" style="rounded=0;whiteSpace=wrap;html=1;strokeColor=#000000;fillColor=none;strokeWidth=3;fontSize=39;" vertex="1" parent="1">
                    <mxGeometry x="163" y="391" width="240" height="60" as="geometry"/>
                </mxCell>
                <mxCell id="3" value="&lt;font color=&quot;#000000&quot; style=&quot;font-size: 15px;&quot;&gt;Password&lt;/font&gt;" style="ellipse;whiteSpace=wrap;html=1;strokeColor=#000000;strokeWidth=3;fillColor=none;fontSize=15;" vertex="1" parent="1">
                    <mxGeometry x="44" y="479" width="150" height="70" as="geometry"/>
                </mxCell>
                <mxCell id="4" value="&lt;font color=&quot;#000000&quot; style=&quot;font-size: 15px;&quot;&gt;ID_Peserta&lt;/font&gt;" style="ellipse;whiteSpace=wrap;html=1;strokeColor=#006EAF;strokeWidth=3;fillColor=#1ba1e2;fontColor=#ffffff;fillStyle=auto;fontSize=15;" vertex="1" parent="1">
                    <mxGeometry x="208" y="236" width="150" height="70" as="geometry"/>
                </mxCell>
                <mxCell id="5" value="&lt;font color=&quot;#000000&quot; style=&quot;font-size: 15px;&quot;&gt;Nama&lt;/font&gt;" style="ellipse;whiteSpace=wrap;html=1;strokeColor=#000000;strokeWidth=3;fillColor=none;fontSize=15;" vertex="1" parent="1">
                    <mxGeometry x="26" y="275" width="150" height="70" as="geometry"/>
                </mxCell>
                <mxCell id="6" value="&lt;font style=&quot;font-size: 39px;&quot; color=&quot;#000000&quot;&gt;PENGAJAR&lt;/font&gt;" style="rounded=0;whiteSpace=wrap;html=1;strokeColor=#000000;fillColor=none;strokeWidth=3;" vertex="1" parent="1">
                    <mxGeometry x="163" y="796" width="240" height="60" as="geometry"/>
                </mxCell>
                <mxCell id="7" value="&lt;font style=&quot;font-size: 15px;&quot; color=&quot;#000000&quot;&gt;Melakukan&lt;/font&gt;" style="rhombus;whiteSpace=wrap;html=1;strokeColor=#000000;strokeWidth=3;fillColor=none;fontSize=15;" vertex="1" parent="1">
                    <mxGeometry x="603" y="381" width="240" height="80" as="geometry"/>
                </mxCell>
                <mxCell id="8" value="&lt;font style=&quot;font-size: 15px;&quot; color=&quot;#000000&quot;&gt;Pendaftaran&lt;/font&gt;" style="rounded=0;whiteSpace=wrap;html=1;strokeColor=#000000;fillColor=none;strokeWidth=3;fontSize=15;" vertex="1" parent="1">
                    <mxGeometry x="603" y="589" width="240" height="60" as="geometry"/>
                </mxCell>
                <mxCell id="9" value="&lt;font color=&quot;#000000&quot; style=&quot;font-size: 15px;&quot;&gt;Mengajar&lt;/font&gt;" style="rhombus;whiteSpace=wrap;html=1;strokeColor=#000000;strokeWidth=3;fillColor=none;fontSize=15;" vertex="1" parent="1">
                    <mxGeometry x="752" y="786" width="240" height="80" as="geometry"/>
                </mxCell>
                <mxCell id="10" value="&lt;font color=&quot;#000000&quot;&gt;&lt;span style=&quot;font-size: 38px;&quot;&gt;KURSUS&lt;/span&gt;&lt;/font&gt;" style="rounded=0;whiteSpace=wrap;html=1;strokeColor=#000000;fillColor=none;strokeWidth=3;" vertex="1" parent="1">
                    <mxGeometry x="1317" y="173" width="240" height="60" as="geometry"/>
                </mxCell>
                <mxCell id="11" value="&lt;font color=&quot;#000000&quot;&gt;&lt;span style=&quot;font-size: 32px;&quot;&gt;PEMBAYARAN&lt;/span&gt;&lt;/font&gt;" style="rounded=0;whiteSpace=wrap;html=1;strokeColor=#000000;fillColor=none;strokeWidth=3;" vertex="1" parent="1">
                    <mxGeometry x="603" y="173" width="240" height="60" as="geometry"/>
                </mxCell>
                <mxCell id="12" value="&lt;font style=&quot;font-size: 15px;&quot; color=&quot;#000000&quot;&gt;Memiliki&lt;/font&gt;" style="rhombus;whiteSpace=wrap;html=1;strokeColor=#000000;strokeWidth=3;fillColor=none;fontSize=15;" vertex="1" parent="1">
                    <mxGeometry x="1317" y="655" width="240" height="80" as="geometry"/>
                </mxCell>
                <mxCell id="14" value="&lt;font color=&quot;#000000&quot; style=&quot;font-size: 38px;&quot;&gt;WEBINAR&lt;/font&gt;" style="rounded=0;whiteSpace=wrap;html=1;strokeColor=#000000;fillColor=none;strokeWidth=3;" vertex="1" parent="1">
                    <mxGeometry x="1317" y="794" width="240" height="60" as="geometry"/>
                </mxCell>
                <mxCell id="16" value="" style="endArrow=none;html=1;fontSize=15;fontColor=#000000;entryX=0.5;entryY=1;entryDx=0;entryDy=0;strokeColor=#000000;" edge="1" parent="1" source="7" target="11">
                    <mxGeometry width="50" height="50" relative="1" as="geometry">
                        <mxPoint x="837" y="477" as="sourcePoint"/>
                        <mxPoint x="887" y="427" as="targetPoint"/>
                    </mxGeometry>
                </mxCell>
                <mxCell id="18" value="" style="endArrow=none;html=1;strokeColor=#000000;fontSize=15;fontColor=#000000;exitX=1;exitY=0.5;exitDx=0;exitDy=0;entryX=0;entryY=0.5;entryDx=0;entryDy=0;" edge="1" parent="1" source="2" target="7">
                    <mxGeometry width="50" height="50" relative="1" as="geometry">
                        <mxPoint x="837" y="477" as="sourcePoint"/>
                        <mxPoint x="581" y="421" as="targetPoint"/>
                    </mxGeometry>
                </mxCell>
                <mxCell id="19" value="" style="endArrow=none;html=1;strokeColor=#000000;fontSize=15;fontColor=#000000;entryX=0.5;entryY=1;entryDx=0;entryDy=0;exitX=0.5;exitY=0;exitDx=0;exitDy=0;" edge="1" parent="1" source="8" target="7">
                    <mxGeometry width="50" height="50" relative="1" as="geometry">
                        <mxPoint x="801" y="624" as="sourcePoint"/>
                        <mxPoint x="851" y="574" as="targetPoint"/>
                    </mxGeometry>
                </mxCell>
                <mxCell id="22" value="" style="endArrow=none;html=1;strokeColor=#000000;fontSize=15;fontColor=#000000;entryX=0.5;entryY=1;entryDx=0;entryDy=0;exitX=0.5;exitY=0;exitDx=0;exitDy=0;" edge="1" parent="1" source="14" target="12">
                    <mxGeometry width="50" height="50" relative="1" as="geometry">
                        <mxPoint x="1081" y="665" as="sourcePoint"/>
                        <mxPoint x="1131" y="615" as="targetPoint"/>
                    </mxGeometry>
                </mxCell>
                <mxCell id="24" value="" style="endArrow=none;html=1;strokeColor=#000000;fontSize=15;fontColor=#000000;exitX=1;exitY=0.5;exitDx=0;exitDy=0;entryX=0;entryY=0.5;entryDx=0;entryDy=0;" edge="1" parent="1" source="9" target="14">
                    <mxGeometry width="50" height="50" relative="1" as="geometry">
                        <mxPoint x="951" y="790" as="sourcePoint"/>
                        <mxPoint x="1001" y="740" as="targetPoint"/>
                    </mxGeometry>
                </mxCell>
                <mxCell id="25" value="" style="endArrow=none;html=1;strokeColor=#000000;fontSize=15;fontColor=#000000;entryX=0;entryY=0.5;entryDx=0;entryDy=0;exitX=1;exitY=0.5;exitDx=0;exitDy=0;" edge="1" parent="1" source="6" target="9">
                    <mxGeometry width="50" height="50" relative="1" as="geometry">
                        <mxPoint x="951" y="790" as="sourcePoint"/>
                        <mxPoint x="1001" y="740" as="targetPoint"/>
                    </mxGeometry>
                </mxCell>
                <mxCell id="26" value="&lt;font color=&quot;#000000&quot; style=&quot;font-size: 15px;&quot;&gt;&lt;span style=&quot;font-size: 15px;&quot;&gt;Dapat&lt;/span&gt;&lt;/font&gt;" style="rhombus;whiteSpace=wrap;html=1;strokeColor=#000000;strokeWidth=3;fillColor=none;fontSize=15;" vertex="1" parent="1">
                    <mxGeometry x="945" y="160" width="240" height="80" as="geometry"/>
                </mxCell>
                <mxCell id="27" value="" style="endArrow=none;html=1;strokeColor=#000000;fontSize=15;fontColor=#000000;entryX=0;entryY=0.5;entryDx=0;entryDy=0;exitX=1;exitY=0.5;exitDx=0;exitDy=0;" edge="1" parent="1" source="11" target="26">
                    <mxGeometry width="50" height="50" relative="1" as="geometry">
                        <mxPoint x="834" y="556" as="sourcePoint"/>
                        <mxPoint x="884" y="506" as="targetPoint"/>
                    </mxGeometry>
                </mxCell>
                <mxCell id="28" value="" style="endArrow=none;html=1;strokeColor=#000000;fontSize=15;fontColor=#000000;entryX=1;entryY=0.5;entryDx=0;entryDy=0;exitX=0;exitY=0.5;exitDx=0;exitDy=0;" edge="1" parent="1" source="10" target="26">
                    <mxGeometry width="50" height="50" relative="1" as="geometry">
                        <mxPoint x="834" y="556" as="sourcePoint"/>
                        <mxPoint x="884" y="506" as="targetPoint"/>
                    </mxGeometry>
                </mxCell>
                <mxCell id="30" value="&lt;font color=&quot;#000000&quot; style=&quot;font-size: 15px;&quot;&gt;Email&lt;/font&gt;" style="ellipse;whiteSpace=wrap;html=1;strokeColor=#000000;strokeWidth=3;fillColor=none;fontSize=15;" vertex="1" parent="1">
                    <mxGeometry x="378" y="282" width="150" height="70" as="geometry"/>
                </mxCell>
                <mxCell id="31" value="&lt;font color=&quot;#000000&quot; style=&quot;font-size: 15px;&quot;&gt;Email&lt;/font&gt;" style="ellipse;whiteSpace=wrap;html=1;strokeColor=#000000;strokeWidth=3;fillColor=none;fontSize=15;" vertex="1" parent="1">
                    <mxGeometry x="23" y="691" width="150" height="70" as="geometry"/>
                </mxCell>
                <mxCell id="32" value="&lt;font color=&quot;#000000&quot; style=&quot;font-size: 15px;&quot;&gt;ID_Pengajar&lt;/font&gt;" style="ellipse;whiteSpace=wrap;html=1;strokeColor=none;strokeWidth=3;fillColor=#1ba1e2;fontSize=15;fontColor=#ffffff;" vertex="1" parent="1">
                    <mxGeometry x="200" y="691" width="150" height="70" as="geometry"/>
                </mxCell>
                <mxCell id="33" value="&lt;font color=&quot;#000000&quot; style=&quot;font-size: 15px;&quot;&gt;Password&lt;/font&gt;" style="ellipse;whiteSpace=wrap;html=1;strokeColor=#000000;strokeWidth=3;fillColor=none;fontSize=15;" vertex="1" parent="1">
                    <mxGeometry x="186" y="886" width="150" height="70" as="geometry"/>
                </mxCell>
                <mxCell id="34" value="&lt;font color=&quot;#000000&quot; style=&quot;font-size: 15px;&quot;&gt;Nama&lt;/font&gt;" style="ellipse;whiteSpace=wrap;html=1;strokeColor=#000000;strokeWidth=3;fillColor=none;fontSize=15;" vertex="1" parent="1">
                    <mxGeometry x="20" y="854" width="150" height="70" as="geometry"/>
                </mxCell>
                <mxCell id="35" value="&lt;font color=&quot;#000000&quot; style=&quot;font-size: 15px;&quot;&gt;ID_Pendaftaran&lt;/font&gt;" style="ellipse;whiteSpace=wrap;html=1;strokeColor=#000000;strokeWidth=3;fillColor=none;fontSize=15;" vertex="1" parent="1">
                    <mxGeometry x="557" y="62" width="150" height="70" as="geometry"/>
                </mxCell>
                <mxCell id="36" value="&lt;font color=&quot;#000000&quot; style=&quot;font-size: 15px;&quot;&gt;TanggalBayar&lt;/font&gt;" style="ellipse;whiteSpace=wrap;html=1;strokeColor=#000000;strokeWidth=3;fillColor=none;fontSize=15;" vertex="1" parent="1">
                    <mxGeometry x="747" y="73" width="150" height="70" as="geometry"/>
                </mxCell>
                <mxCell id="37" value="&lt;font color=&quot;#000000&quot; style=&quot;font-size: 15px;&quot;&gt;ID_PEmbayaran&lt;/font&gt;" style="ellipse;whiteSpace=wrap;html=1;strokeColor=none;strokeWidth=3;fillColor=#1ba1e2;fontSize=15;fontColor=#ffffff;" vertex="1" parent="1">
                    <mxGeometry x="423" y="132" width="150" height="70" as="geometry"/>
                </mxCell>
                <mxCell id="38" value="&lt;font color=&quot;#000000&quot; style=&quot;font-size: 15px;&quot;&gt;Jumlah&lt;/font&gt;" style="ellipse;whiteSpace=wrap;html=1;strokeColor=#000000;strokeWidth=3;fillColor=none;fontSize=15;" vertex="1" parent="1">
                    <mxGeometry x="744" y="249" width="150" height="70" as="geometry"/>
                </mxCell>
                <mxCell id="39" value="&lt;font color=&quot;#000000&quot; style=&quot;font-size: 15px;&quot;&gt;ID_Pendaftaran&lt;/font&gt;" style="ellipse;whiteSpace=wrap;html=1;strokeColor=none;strokeWidth=3;fillColor=#1ba1e2;fontSize=15;fontColor=#ffffff;" vertex="1" parent="1">
                    <mxGeometry x="530" y="499" width="150" height="70" as="geometry"/>
                </mxCell>
                <mxCell id="40" value="&lt;font color=&quot;#000000&quot; style=&quot;font-size: 15px;&quot;&gt;Waktu&lt;/font&gt;" style="ellipse;whiteSpace=wrap;html=1;strokeColor=#000000;strokeWidth=3;fillColor=none;fontSize=15;" vertex="1" parent="1">
                    <mxGeometry x="1204" y="569" width="150" height="70" as="geometry"/>
                </mxCell>
                <mxCell id="41" value="&lt;font color=&quot;#000000&quot; style=&quot;font-size: 15px;&quot;&gt;ID_Kursus&lt;/font&gt;" style="ellipse;whiteSpace=wrap;html=1;strokeColor=#000000;strokeWidth=3;fillColor=none;fontSize=15;" vertex="1" parent="1">
                    <mxGeometry x="423" y="585" width="150" height="70" as="geometry"/>
                </mxCell>
                <mxCell id="42" value="&lt;font color=&quot;#000000&quot; style=&quot;font-size: 15px;&quot;&gt;StatusRegis&lt;/font&gt;" style="ellipse;whiteSpace=wrap;html=1;strokeColor=#000000;strokeWidth=3;fillColor=none;fontSize=15;" vertex="1" parent="1">
                    <mxGeometry x="538" y="675" width="150" height="70" as="geometry"/>
                </mxCell>
                <mxCell id="43" value="&lt;font color=&quot;#000000&quot; style=&quot;font-size: 15px;&quot;&gt;TanggalPendaftaran&lt;/font&gt;" style="ellipse;whiteSpace=wrap;html=1;strokeColor=#000000;strokeWidth=3;fillColor=none;fontSize=15;" vertex="1" parent="1">
                    <mxGeometry x="741" y="665" width="150" height="70" as="geometry"/>
                </mxCell>
                <mxCell id="44" value="&lt;font color=&quot;#000000&quot; style=&quot;font-size: 15px;&quot;&gt;Biaya&lt;/font&gt;" style="ellipse;whiteSpace=wrap;html=1;strokeColor=#000000;strokeWidth=3;fillColor=none;fontSize=15;" vertex="1" parent="1">
                    <mxGeometry x="752" y="502" width="150" height="70" as="geometry"/>
                </mxCell>
                <mxCell id="45" value="&lt;font color=&quot;#000000&quot; style=&quot;font-size: 15px;&quot;&gt;ID_Jadwal&lt;/font&gt;" style="ellipse;whiteSpace=wrap;html=1;strokeColor=none;strokeWidth=3;fillColor=#1ba1e2;fontSize=15;fontColor=#ffffff;" vertex="1" parent="1">
                    <mxGeometry x="1245" y="402" width="150" height="70" as="geometry"/>
                </mxCell>
                <mxCell id="46" value="&lt;font color=&quot;#000000&quot; style=&quot;font-size: 15px;&quot;&gt;ID_Webinar&lt;/font&gt;" style="ellipse;whiteSpace=wrap;html=1;strokeColor=#000000;strokeWidth=3;fillColor=none;fontSize=15;" vertex="1" parent="1">
                    <mxGeometry x="1484" y="576" width="150" height="70" as="geometry"/>
                </mxCell>
                <mxCell id="47" value="&lt;font color=&quot;#000000&quot; style=&quot;font-size: 15px;&quot;&gt;Tanggal&lt;/font&gt;" style="ellipse;whiteSpace=wrap;html=1;strokeColor=#000000;strokeWidth=3;fillColor=none;fontSize=15;" vertex="1" parent="1">
                    <mxGeometry x="1123" y="477" width="150" height="70" as="geometry"/>
                </mxCell>
                <mxCell id="48" value="&lt;font color=&quot;#000000&quot; style=&quot;font-size: 15px;&quot;&gt;ID_Webinar&lt;/font&gt;" style="ellipse;whiteSpace=wrap;html=1;strokeColor=#006EAF;strokeWidth=3;fillColor=#1ba1e2;fontSize=15;fontColor=#ffffff;" vertex="1" parent="1">
                    <mxGeometry x="1150" y="836" width="150" height="70" as="geometry"/>
                </mxCell>
                <mxCell id="49" value="&lt;font color=&quot;#000000&quot; style=&quot;font-size: 15px;&quot;&gt;ID_Kursus&lt;/font&gt;" style="ellipse;whiteSpace=wrap;html=1;strokeColor=#000000;strokeWidth=3;fillColor=none;fontSize=15;" vertex="1" parent="1">
                    <mxGeometry x="1288" y="904" width="150" height="70" as="geometry"/>
                </mxCell>
                <mxCell id="50" value="&lt;font color=&quot;#000000&quot; style=&quot;font-size: 15px;&quot;&gt;Tanggal&lt;/font&gt;" style="ellipse;whiteSpace=wrap;html=1;strokeColor=#000000;strokeWidth=3;fillColor=none;fontSize=15;" vertex="1" parent="1">
                    <mxGeometry x="1141" y="737" width="150" height="70" as="geometry"/>
                </mxCell>
                <mxCell id="51" value="&lt;font color=&quot;#000000&quot; style=&quot;font-size: 15px;&quot;&gt;Link&lt;/font&gt;" style="ellipse;whiteSpace=wrap;html=1;strokeColor=#000000;strokeWidth=3;fillColor=none;fontSize=15;" vertex="1" parent="1">
                    <mxGeometry x="1434" y="948" width="150" height="70" as="geometry"/>
                </mxCell>
                <mxCell id="52" value="" style="endArrow=none;html=1;strokeColor=#000000;fontSize=15;fontColor=#000000;entryX=0.5;entryY=1;entryDx=0;entryDy=0;exitX=0.5;exitY=0;exitDx=0;exitDy=0;" edge="1" parent="1" source="2" target="4">
                    <mxGeometry width="50" height="50" relative="1" as="geometry">
                        <mxPoint x="328" y="503" as="sourcePoint"/>
                        <mxPoint x="378" y="453" as="targetPoint"/>
                    </mxGeometry>
                </mxCell>
                <mxCell id="53" value="" style="endArrow=none;html=1;strokeColor=#000000;fontSize=15;fontColor=#000000;exitX=1;exitY=0.5;exitDx=0;exitDy=0;entryX=0.5;entryY=1;entryDx=0;entryDy=0;" edge="1" parent="1" source="3" target="2">
                    <mxGeometry width="50" height="50" relative="1" as="geometry">
                        <mxPoint x="328" y="503" as="sourcePoint"/>
                        <mxPoint x="378" y="453" as="targetPoint"/>
                    </mxGeometry>
                </mxCell>
                <mxCell id="54" value="" style="endArrow=none;html=1;strokeColor=#000000;fontSize=15;fontColor=#000000;entryX=0;entryY=1;entryDx=0;entryDy=0;exitX=0.75;exitY=0;exitDx=0;exitDy=0;" edge="1" parent="1" source="2" target="30">
                    <mxGeometry width="50" height="50" relative="1" as="geometry">
                        <mxPoint x="328" y="503" as="sourcePoint"/>
                        <mxPoint x="378" y="453" as="targetPoint"/>
                    </mxGeometry>
                </mxCell>
                <mxCell id="55" value="" style="endArrow=none;html=1;strokeColor=#000000;fontSize=15;fontColor=#000000;entryX=1;entryY=1;entryDx=0;entryDy=0;exitX=0.25;exitY=0;exitDx=0;exitDy=0;" edge="1" parent="1" source="2" target="5">
                    <mxGeometry width="50" height="50" relative="1" as="geometry">
                        <mxPoint x="328" y="503" as="sourcePoint"/>
                        <mxPoint x="378" y="453" as="targetPoint"/>
                    </mxGeometry>
                </mxCell>
                <mxCell id="56" value="" style="endArrow=none;html=1;strokeColor=#000000;fontSize=15;fontColor=#000000;entryX=0.75;entryY=1;entryDx=0;entryDy=0;exitX=1;exitY=0;exitDx=0;exitDy=0;" edge="1" parent="1" source="33" target="6">
                    <mxGeometry width="50" height="50" relative="1" as="geometry">
                        <mxPoint x="328" y="924" as="sourcePoint"/>
                        <mxPoint x="378" y="874" as="targetPoint"/>
                    </mxGeometry>
                </mxCell>
                <mxCell id="57" value="" style="endArrow=none;html=1;strokeColor=#000000;fontSize=15;fontColor=#000000;entryX=0.5;entryY=1;entryDx=0;entryDy=0;exitX=0.5;exitY=0;exitDx=0;exitDy=0;" edge="1" parent="1" source="6" target="32">
                    <mxGeometry width="50" height="50" relative="1" as="geometry">
                        <mxPoint x="328" y="924" as="sourcePoint"/>
                        <mxPoint x="378" y="874" as="targetPoint"/>
                    </mxGeometry>
                </mxCell>
                <mxCell id="58" value="" style="endArrow=none;html=1;strokeColor=#000000;fontSize=15;fontColor=#000000;entryX=1;entryY=1;entryDx=0;entryDy=0;exitX=0.25;exitY=0;exitDx=0;exitDy=0;" edge="1" parent="1" source="6" target="31">
                    <mxGeometry width="50" height="50" relative="1" as="geometry">
                        <mxPoint x="328" y="924" as="sourcePoint"/>
                        <mxPoint x="378" y="874" as="targetPoint"/>
                    </mxGeometry>
                </mxCell>
                <mxCell id="59" value="" style="endArrow=none;html=1;strokeColor=#000000;fontSize=15;fontColor=#000000;entryX=0;entryY=0.5;entryDx=0;entryDy=0;exitX=1;exitY=0;exitDx=0;exitDy=0;" edge="1" parent="1" source="34" target="6">
                    <mxGeometry width="50" height="50" relative="1" as="geometry">
                        <mxPoint x="328" y="924" as="sourcePoint"/>
                        <mxPoint x="378" y="874" as="targetPoint"/>
                    </mxGeometry>
                </mxCell>
                <mxCell id="60" value="&lt;font color=&quot;#000000&quot;&gt;&lt;span style=&quot;font-size: 38px;&quot;&gt;JADWAL&lt;/span&gt;&lt;/font&gt;" style="rounded=0;whiteSpace=wrap;html=1;strokeColor=#000000;fillColor=none;strokeWidth=3;" vertex="1" parent="1">
                    <mxGeometry x="1317" y="495.5" width="240" height="60" as="geometry"/>
                </mxCell>
                <mxCell id="63" value="&lt;font color=&quot;#000000&quot; style=&quot;font-size: 15px;&quot;&gt;&lt;span style=&quot;font-size: 15px;&quot;&gt;Dapat&lt;/span&gt;&lt;/font&gt;" style="rhombus;whiteSpace=wrap;html=1;strokeColor=#000000;strokeWidth=3;fillColor=none;fontSize=15;" vertex="1" parent="1">
                    <mxGeometry x="1317" y="330" width="240" height="80" as="geometry"/>
                </mxCell>
                <mxCell id="64" value="" style="endArrow=none;html=1;strokeColor=#000000;fontSize=15;fontColor=#000000;entryX=0.5;entryY=1;entryDx=0;entryDy=0;exitX=0.75;exitY=0;exitDx=0;exitDy=0;" edge="1" parent="1" source="8" target="44">
                    <mxGeometry width="50" height="50" relative="1" as="geometry">
                        <mxPoint x="806" y="679" as="sourcePoint"/>
                        <mxPoint x="856" y="629" as="targetPoint"/>
                    </mxGeometry>
                </mxCell>
                <mxCell id="66" value="" style="endArrow=none;html=1;strokeColor=#000000;fontSize=15;fontColor=#000000;entryX=0.75;entryY=1;entryDx=0;entryDy=0;" edge="1" parent="1" target="8">
                    <mxGeometry width="50" height="50" relative="1" as="geometry">
                        <mxPoint x="796" y="664" as="sourcePoint"/>
                        <mxPoint x="856" y="629" as="targetPoint"/>
                    </mxGeometry>
                </mxCell>
                <mxCell id="67" value="" style="endArrow=none;html=1;strokeColor=#000000;fontSize=15;fontColor=#000000;entryX=1;entryY=1;entryDx=0;entryDy=0;exitX=0.25;exitY=0;exitDx=0;exitDy=0;" edge="1" parent="1" source="8" target="39">
                    <mxGeometry width="50" height="50" relative="1" as="geometry">
                        <mxPoint x="806" y="679" as="sourcePoint"/>
                        <mxPoint x="856" y="629" as="targetPoint"/>
                    </mxGeometry>
                </mxCell>
                <mxCell id="68" value="" style="endArrow=none;html=1;strokeColor=#000000;fontSize=15;fontColor=#000000;entryX=1;entryY=0.5;entryDx=0;entryDy=0;exitX=0;exitY=0.5;exitDx=0;exitDy=0;" edge="1" parent="1" source="8" target="41">
                    <mxGeometry width="50" height="50" relative="1" as="geometry">
                        <mxPoint x="806" y="679" as="sourcePoint"/>
                        <mxPoint x="856" y="629" as="targetPoint"/>
                    </mxGeometry>
                </mxCell>
                <mxCell id="69" value="" style="endArrow=none;html=1;strokeColor=#000000;fontSize=15;fontColor=#000000;entryX=0.25;entryY=1;entryDx=0;entryDy=0;exitX=0.5;exitY=0;exitDx=0;exitDy=0;" edge="1" parent="1" source="42" target="8">
                    <mxGeometry width="50" height="50" relative="1" as="geometry">
                        <mxPoint x="806" y="679" as="sourcePoint"/>
                        <mxPoint x="856" y="629" as="targetPoint"/>
                    </mxGeometry>
                </mxCell>
                <mxCell id="70" value="" style="endArrow=none;html=1;strokeColor=#000000;fontSize=15;fontColor=#000000;entryX=0.5;entryY=1;entryDx=0;entryDy=0;exitX=0.5;exitY=0;exitDx=0;exitDy=0;" edge="1" parent="1" source="12" target="60">
                    <mxGeometry width="50" height="50" relative="1" as="geometry">
                        <mxPoint x="1422" y="678" as="sourcePoint"/>
                        <mxPoint x="1472" y="628" as="targetPoint"/>
                    </mxGeometry>
                </mxCell>
                <mxCell id="71" value="" style="endArrow=none;html=1;strokeColor=#000000;fontSize=15;fontColor=#000000;exitX=0.5;exitY=0;exitDx=0;exitDy=0;entryX=0.5;entryY=1;entryDx=0;entryDy=0;" edge="1" parent="1" source="60" target="63">
                    <mxGeometry width="50" height="50" relative="1" as="geometry">
                        <mxPoint x="1422" y="392" as="sourcePoint"/>
                        <mxPoint x="1472" y="342" as="targetPoint"/>
                    </mxGeometry>
                </mxCell>
                <mxCell id="72" value="" style="endArrow=none;html=1;strokeColor=#000000;fontSize=15;fontColor=#000000;entryX=0.5;entryY=1;entryDx=0;entryDy=0;exitX=0.5;exitY=0;exitDx=0;exitDy=0;" edge="1" parent="1" source="63" target="10">
                    <mxGeometry width="50" height="50" relative="1" as="geometry">
                        <mxPoint x="1422" y="392" as="sourcePoint"/>
                        <mxPoint x="1472" y="342" as="targetPoint"/>
                    </mxGeometry>
                </mxCell>
                <mxCell id="73" value="" style="endArrow=none;html=1;strokeColor=#000000;fontSize=15;fontColor=none;entryX=0.5;entryY=1;entryDx=0;entryDy=0;exitX=0.75;exitY=0;exitDx=0;exitDy=0;" edge="1" parent="1" source="11" target="36">
                    <mxGeometry width="50" height="50" relative="1" as="geometry">
                        <mxPoint x="838" y="238" as="sourcePoint"/>
                        <mxPoint x="888" y="188" as="targetPoint"/>
                    </mxGeometry>
                </mxCell>
                <mxCell id="74" value="" style="endArrow=none;html=1;strokeColor=#000000;fontSize=15;fontColor=none;entryX=0.5;entryY=1;entryDx=0;entryDy=0;exitX=0.25;exitY=0;exitDx=0;exitDy=0;" edge="1" parent="1" source="11" target="35">
                    <mxGeometry width="50" height="50" relative="1" as="geometry">
                        <mxPoint x="838" y="238" as="sourcePoint"/>
                        <mxPoint x="888" y="188" as="targetPoint"/>
                    </mxGeometry>
                </mxCell>
                <mxCell id="75" value="" style="endArrow=none;html=1;strokeColor=#000000;fontSize=15;fontColor=none;entryX=0.75;entryY=1;entryDx=0;entryDy=0;exitX=0.5;exitY=0;exitDx=0;exitDy=0;" edge="1" parent="1" source="38" target="11">
                    <mxGeometry width="50" height="50" relative="1" as="geometry">
                        <mxPoint x="838" y="238" as="sourcePoint"/>
                        <mxPoint x="888" y="188" as="targetPoint"/>
                    </mxGeometry>
                </mxCell>
                <mxCell id="76" value="" style="endArrow=none;html=1;strokeColor=#000000;fontSize=15;fontColor=none;entryX=1;entryY=1;entryDx=0;entryDy=0;exitX=0;exitY=0.75;exitDx=0;exitDy=0;" edge="1" parent="1" source="11" target="37">
                    <mxGeometry width="50" height="50" relative="1" as="geometry">
                        <mxPoint x="838" y="238" as="sourcePoint"/>
                        <mxPoint x="888" y="188" as="targetPoint"/>
                    </mxGeometry>
                </mxCell>
                <mxCell id="77" value="&lt;font color=&quot;#000000&quot; style=&quot;font-size: 15px;&quot;&gt;Tanggal&lt;/font&gt;" style="ellipse;whiteSpace=wrap;html=1;strokeColor=#000000;strokeWidth=3;fillColor=none;fontSize=15;" vertex="1" parent="1">
                    <mxGeometry x="1495" y="869" width="150" height="70" as="geometry"/>
                </mxCell>
                <mxCell id="78" value="" style="endArrow=none;html=1;strokeColor=#000000;fontSize=15;fontColor=none;entryX=0.5;entryY=0;entryDx=0;entryDy=0;exitX=1;exitY=1;exitDx=0;exitDy=0;" edge="1" parent="1" source="14" target="77">
                    <mxGeometry width="50" height="50" relative="1" as="geometry">
                        <mxPoint x="1366" y="838" as="sourcePoint"/>
                        <mxPoint x="1416" y="788" as="targetPoint"/>
                    </mxGeometry>
                </mxCell>
                <mxCell id="79" value="" style="endArrow=none;html=1;strokeColor=#000000;fontSize=15;fontColor=none;entryX=0.5;entryY=0;entryDx=0;entryDy=0;exitX=0.5;exitY=1;exitDx=0;exitDy=0;" edge="1" parent="1" source="14" target="51">
                    <mxGeometry width="50" height="50" relative="1" as="geometry">
                        <mxPoint x="1366" y="838" as="sourcePoint"/>
                        <mxPoint x="1416" y="788" as="targetPoint"/>
                    </mxGeometry>
                </mxCell>
                <mxCell id="80" value="" style="endArrow=none;html=1;strokeColor=#000000;fontSize=15;fontColor=none;exitX=0.5;exitY=0;exitDx=0;exitDy=0;entryX=0.25;entryY=1;entryDx=0;entryDy=0;" edge="1" parent="1" source="49" target="14">
                    <mxGeometry width="50" height="50" relative="1" as="geometry">
                        <mxPoint x="1366" y="838" as="sourcePoint"/>
                        <mxPoint x="1416" y="788" as="targetPoint"/>
                    </mxGeometry>
                </mxCell>
                <mxCell id="81" value="" style="endArrow=none;html=1;strokeColor=#000000;fontSize=15;fontColor=none;exitX=1;exitY=0;exitDx=0;exitDy=0;entryX=0;entryY=0.5;entryDx=0;entryDy=0;" edge="1" parent="1" source="48" target="14">
                    <mxGeometry width="50" height="50" relative="1" as="geometry">
                        <mxPoint x="1366" y="838" as="sourcePoint"/>
                        <mxPoint x="1416" y="788" as="targetPoint"/>
                    </mxGeometry>
                </mxCell>
                <mxCell id="82" value="" style="endArrow=none;html=1;strokeColor=#000000;fontSize=15;fontColor=none;entryX=1;entryY=1;entryDx=0;entryDy=0;" edge="1" parent="1" target="50">
                    <mxGeometry width="50" height="50" relative="1" as="geometry">
                        <mxPoint x="1317" y="825" as="sourcePoint"/>
                        <mxPoint x="1416" y="788" as="targetPoint"/>
                    </mxGeometry>
                </mxCell>
                <mxCell id="83" value="" style="endArrow=none;html=1;strokeColor=#000000;fontSize=15;fontColor=none;entryX=1;entryY=1;entryDx=0;entryDy=0;exitX=0.5;exitY=0;exitDx=0;exitDy=0;" edge="1" parent="1" source="60" target="45">
                    <mxGeometry width="50" height="50" relative="1" as="geometry">
                        <mxPoint x="1366" y="538" as="sourcePoint"/>
                        <mxPoint x="1416" y="488" as="targetPoint"/>
                    </mxGeometry>
                </mxCell>
                <mxCell id="85" value="" style="endArrow=none;html=1;strokeColor=#000000;fontSize=15;fontColor=none;exitX=1;exitY=0.5;exitDx=0;exitDy=0;entryX=0;entryY=0.5;entryDx=0;entryDy=0;" edge="1" parent="1" source="47" target="60">
                    <mxGeometry width="50" height="50" relative="1" as="geometry">
                        <mxPoint x="1366" y="538" as="sourcePoint"/>
                        <mxPoint x="1416" y="488" as="targetPoint"/>
                    </mxGeometry>
                </mxCell>
                <mxCell id="86" value="" style="endArrow=none;html=1;strokeColor=#000000;fontSize=15;fontColor=none;exitX=1;exitY=0;exitDx=0;exitDy=0;entryX=0.25;entryY=1;entryDx=0;entryDy=0;" edge="1" parent="1" source="40" target="60">
                    <mxGeometry width="50" height="50" relative="1" as="geometry">
                        <mxPoint x="1366" y="538" as="sourcePoint"/>
                        <mxPoint x="1416" y="488" as="targetPoint"/>
                    </mxGeometry>
                </mxCell>
                <mxCell id="87" value="" style="endArrow=none;html=1;strokeColor=#000000;fontSize=15;fontColor=none;entryX=0;entryY=0;entryDx=0;entryDy=0;exitX=0.75;exitY=1;exitDx=0;exitDy=0;" edge="1" parent="1" source="60" target="46">
                    <mxGeometry width="50" height="50" relative="1" as="geometry">
                        <mxPoint x="1366" y="538" as="sourcePoint"/>
                        <mxPoint x="1416" y="488" as="targetPoint"/>
                    </mxGeometry>
                </mxCell>
                <mxCell id="88" value="&lt;font color=&quot;#000000&quot; style=&quot;font-size: 15px;&quot;&gt;ID_Kursus&lt;/font&gt;" style="ellipse;whiteSpace=wrap;html=1;strokeColor=#006EAF;strokeWidth=3;fillColor=#1ba1e2;fontSize=15;fontColor=#ffffff;" vertex="1" parent="1">
                    <mxGeometry x="1188" y="90" width="150" height="70" as="geometry"/>
                </mxCell>
                <mxCell id="89" value="&lt;font color=&quot;#000000&quot; style=&quot;font-size: 15px;&quot;&gt;Nama_Kursus&lt;/font&gt;" style="ellipse;whiteSpace=wrap;html=1;strokeColor=#000000;strokeWidth=3;fillColor=none;fontSize=15;" vertex="1" parent="1">
                    <mxGeometry x="1334" y="40" width="150" height="70" as="geometry"/>
                </mxCell>
                <mxCell id="90" value="&lt;font color=&quot;#000000&quot; style=&quot;font-size: 15px;&quot;&gt;Tanggal_Mulai&lt;/font&gt;" style="ellipse;whiteSpace=wrap;html=1;strokeColor=#000000;strokeWidth=3;fillColor=none;fontSize=15;" vertex="1" parent="1">
                    <mxGeometry x="1495" y="73" width="150" height="70" as="geometry"/>
                </mxCell>
                <mxCell id="91" value="&lt;font color=&quot;#000000&quot; style=&quot;font-size: 15px;&quot;&gt;Tanggal_Selesai&lt;/font&gt;" style="ellipse;whiteSpace=wrap;html=1;strokeColor=#000000;strokeWidth=3;fillColor=none;fontSize=15;" vertex="1" parent="1">
                    <mxGeometry x="1495" y="247" width="150" height="70" as="geometry"/>
                </mxCell>
                <mxCell id="92" value="" style="endArrow=none;html=1;strokeColor=#000000;fontSize=15;fontColor=none;entryX=0.5;entryY=1;entryDx=0;entryDy=0;exitX=0.5;exitY=0;exitDx=0;exitDy=0;" edge="1" parent="1" source="10" target="89">
                    <mxGeometry width="50" height="50" relative="1" as="geometry">
                        <mxPoint x="1366" y="170" as="sourcePoint"/>
                        <mxPoint x="1416" y="120" as="targetPoint"/>
                    </mxGeometry>
                </mxCell>
                <mxCell id="93" value="" style="endArrow=none;html=1;strokeColor=#000000;fontSize=15;fontColor=none;entryX=1;entryY=0.5;entryDx=0;entryDy=0;exitX=0.25;exitY=0;exitDx=0;exitDy=0;" edge="1" parent="1" source="10" target="88">
                    <mxGeometry width="50" height="50" relative="1" as="geometry">
                        <mxPoint x="1366" y="170" as="sourcePoint"/>
                        <mxPoint x="1416" y="120" as="targetPoint"/>
                    </mxGeometry>
                </mxCell>
                <mxCell id="94" value="" style="endArrow=none;html=1;strokeColor=#000000;fontSize=15;fontColor=none;entryX=0;entryY=1;entryDx=0;entryDy=0;exitX=0.75;exitY=0;exitDx=0;exitDy=0;" edge="1" parent="1" source="10" target="90">
                    <mxGeometry width="50" height="50" relative="1" as="geometry">
                        <mxPoint x="1496" y="165" as="sourcePoint"/>
                        <mxPoint x="1416" y="120" as="targetPoint"/>
                    </mxGeometry>
                </mxCell>
                <mxCell id="95" value="" style="endArrow=none;html=1;strokeColor=#000000;fontSize=15;fontColor=none;exitX=0.75;exitY=1;exitDx=0;exitDy=0;" edge="1" parent="1" source="10" target="91">
                    <mxGeometry width="50" height="50" relative="1" as="geometry">
                        <mxPoint x="1366" y="170" as="sourcePoint"/>
                        <mxPoint x="1416" y="120" as="targetPoint"/>
                    </mxGeometry>
                </mxCell>
                <mxCell id="98" value="Tabel ERD Webinar" style="text;html=1;strokeColor=none;fillColor=none;align=center;verticalAlign=middle;whiteSpace=wrap;rounded=0;fillStyle=auto;strokeWidth=3;fontSize=50;fontColor=none;" vertex="1" parent="1">
                    <mxGeometry x="407" y="948" width="722" height="124" as="geometry"/>
                </mxCell>
            </root>
        </mxGraphModel>
    </diagram>
</mxfile>